<svg width="83" height="25" viewBox="0 0 83 25" fill="none" xmlns="http://www.w3.org/2000/svg"><path d="M0.52 10.56C1.18667 10.5467 1.66 10.4267 1.94 10.2C2.23333 9.97333 2.38 9.63333 2.38 9.18C2.38 8.86 2.31333 8.22 2.18 7.26C2.11333 6.84667 2.05333 6.42 2 5.98C1.94667 5.52667 1.92 5.12667 1.92 4.78C1.92 3.55333 2.29333 2.6 3.04 1.92C3.8 1.24 4.82 0.899999 6.1 0.899999H7.58V4.08H6.86C6.43333 4.08 6.12667 4.17333 5.94 4.36C5.75333 4.54667 5.66 4.82667 5.66 5.2C5.66 5.45333 5.71333 6.04667 5.82 6.98C5.94 8.18 6 8.96 6 9.32C6 10.08 5.82 10.7067 5.46 11.2C5.11333 11.6933 4.58 12.0067 3.86 12.14V12.18C4.58 12.3133 5.11333 12.6267 5.46 13.12C5.82 13.6133 6 14.24 6 15C6 15.36 5.94 16.14 5.82 17.34C5.71333 18.2733 5.66 18.8733 5.66 19.14C5.66 19.5 5.75333 19.7733 5.94 19.96C6.12667 20.1467 6.43333 20.24 6.86 20.24H7.58V23.42H6.1C4.82 23.42 3.8 23.08 3.04 22.4C2.29333 21.72 1.92 20.7667 1.92 19.54C1.92 19.1933 1.94667 18.8 2 18.36C2.05333 17.9067 2.11333 17.4733 2.18 17.06C2.31333 16.1 2.38 15.4667 2.38 15.16C2.38 14.2533 1.76 13.78 0.52 13.74V10.56ZM24.4119 4.9V8.02H20.6519V19H16.7319V8.02H13.0119V4.9H24.4119ZM27.8422 6.74C27.1489 6.74 26.5889 6.55333 26.1622 6.18C25.7489 5.79333 25.5422 5.31333 25.5422 4.74C25.5422 4.15333 25.7489 3.66667 26.1622 3.28C26.5889 2.89333 27.1489 2.7 27.8422 2.7C28.5222 2.7 29.0689 2.89333 29.4822 3.28C29.9089 3.66667 30.1222 4.15333 30.1222 4.74C30.1222 5.31333 29.9089 5.79333 29.4822 6.18C29.0689 6.55333 28.5222 6.74 27.8422 6.74ZM29.7822 7.78V19H25.8622V7.78H29.7822ZM31.3745 13.38C31.3745 12.22 31.5812 11.2067 31.9945 10.34C32.4212 9.47333 32.9945 8.80667 33.7145 8.34C34.4479 7.87333 35.2612 7.64 36.1545 7.64C36.9279 7.64 37.5945 7.79333 38.1545 8.1C38.7145 8.40667 39.1479 8.82 39.4545 9.34V7.78H43.3745V19H39.4545V17.44C39.1479 17.96 38.7079 18.3733 38.1345 18.68C37.5745 18.9867 36.9145 19.14 36.1545 19.14C35.2612 19.14 34.4479 18.9067 33.7145 18.44C32.9945 17.9733 32.4212 17.3067 31.9945 16.44C31.5812 15.56 31.3745 14.54 31.3745 13.38ZM39.4545 13.38C39.4545 12.66 39.2545 12.0933 38.8545 11.68C38.4679 11.2667 37.9879 11.06 37.4145 11.06C36.8279 11.06 36.3412 11.2667 35.9545 11.68C35.5679 12.08 35.3745 12.6467 35.3745 13.38C35.3745 14.1 35.5679 14.6733 35.9545 15.1C36.3412 15.5133 36.8279 15.72 37.4145 15.72C37.9879 15.72 38.4679 15.5133 38.8545 15.1C39.2545 14.6867 39.4545 14.1133 39.4545 13.38ZM49.7483 7.64C50.5083 7.64 51.1683 7.79333 51.7283 8.1C52.3016 8.40667 52.7416 8.82 53.0483 9.34V7.78H56.9683V18.88C56.9683 19.9333 56.7683 20.88 56.3683 21.72C55.9683 22.5733 55.3416 23.2533 54.4883 23.76C53.6483 24.2667 52.5816 24.52 51.2883 24.52C49.5549 24.52 48.1683 24.1133 47.1283 23.3C46.0883 22.4867 45.4949 21.38 45.3483 19.98H49.2083C49.2883 20.34 49.4883 20.62 49.8083 20.82C50.1283 21.02 50.5416 21.12 51.0483 21.12C52.3816 21.12 53.0483 20.3733 53.0483 18.88V17.44C52.7416 17.96 52.3016 18.3733 51.7283 18.68C51.1683 18.9867 50.5083 19.14 49.7483 19.14C48.8549 19.14 48.0416 18.9067 47.3083 18.44C46.5883 17.9733 46.0149 17.3067 45.5883 16.44C45.1749 15.56 44.9683 14.54 44.9683 13.38C44.9683 12.22 45.1749 11.2067 45.5883 10.34C46.0149 9.47333 46.5883 8.80667 47.3083 8.34C48.0416 7.87333 48.8549 7.64 49.7483 7.64ZM53.0483 13.38C53.0483 12.66 52.8483 12.0933 52.4483 11.68C52.0616 11.2667 51.5816 11.06 51.0083 11.06C50.4216 11.06 49.9349 11.2667 49.5483 11.68C49.1616 12.08 48.9683 12.6467 48.9683 13.38C48.9683 14.1 49.1616 14.6733 49.5483 15.1C49.9349 15.5133 50.4216 15.72 51.0083 15.72C51.5816 15.72 52.0616 15.5133 52.4483 15.1C52.8483 14.6867 53.0483 14.1133 53.0483 13.38ZM64.422 19.14C63.302 19.14 62.2954 18.9067 61.402 18.44C60.522 17.9733 59.8287 17.3067 59.322 16.44C58.8154 15.5733 58.562 14.5533 58.562 13.38C58.562 12.22 58.8154 11.2067 59.322 10.34C59.842 9.47333 60.542 8.80667 61.422 8.34C62.3154 7.87333 63.322 7.64 64.442 7.64C65.562 7.64 66.562 7.87333 67.442 8.34C68.3354 8.80667 69.0354 9.47333 69.542 10.34C70.062 11.2067 70.322 12.22 70.322 13.38C70.322 14.54 70.062 15.56 69.542 16.44C69.0354 17.3067 68.3354 17.9733 67.442 18.44C66.5487 18.9067 65.542 19.14 64.422 19.14ZM64.422 15.74C64.9687 15.74 65.422 15.54 65.782 15.14C66.1554 14.7267 66.342 14.14 66.342 13.38C66.342 12.62 66.1554 12.04 65.782 11.64C65.422 11.24 64.9754 11.04 64.442 11.04C63.9087 11.04 63.462 11.24 63.102 11.64C62.742 12.04 62.562 12.62 62.562 13.38C62.562 14.1533 62.7354 14.74 63.082 15.14C63.4287 15.54 63.8754 15.74 64.422 15.74ZM82.945 13.74C81.705 13.78 81.085 14.2533 81.085 15.16C81.085 15.4667 81.1517 16.1 81.285 17.06C81.3517 17.4733 81.4117 17.9067 81.465 18.36C81.5183 18.8 81.545 19.1933 81.545 19.54C81.545 20.7667 81.165 21.72 80.405 22.4C79.6583 23.08 78.645 23.42 77.365 23.42H75.885V20.24H76.605C77.0317 20.24 77.3383 20.1467 77.525 19.96C77.7117 19.7733 77.805 19.5 77.805 19.14C77.805 18.8733 77.7517 18.2733 77.645 17.34C77.525 16.14 77.465 15.36 77.465 15C77.465 14.24 77.6383 13.6133 77.985 13.12C78.345 12.6267 78.885 12.3133 79.605 12.18V12.14C78.885 12.0067 78.345 11.6933 77.985 11.2C77.6383 10.7067 77.465 10.08 77.465 9.32C77.465 8.96 77.525 8.18 77.645 6.98C77.7517 6.04667 77.805 5.45333 77.805 5.2C77.805 4.82667 77.7117 4.54667 77.525 4.36C77.3383 4.17333 77.0317 4.08 76.605 4.08H75.885V0.899999H77.365C78.645 0.899999 79.6583 1.24 80.405 1.92C81.165 2.6 81.545 3.55333 81.545 4.78C81.545 5.12667 81.5183 5.52667 81.465 5.98C81.4117 6.42 81.3517 6.84667 81.285 7.26C81.1517 8.22 81.085 8.86 81.085 9.18C81.085 9.63333 81.225 9.97333 81.505 10.2C81.7983 10.4267 82.2783 10.5467 82.945 10.56V13.74Z" fill="white"/></svg>